<svg width="34" height="32" viewBox="0 0 34 32" fill="none" xmlns="http://www.w3.org/2000/svg">
<path id="Vector" d="M0.19873 15.889C0.19873 13.5829 0.616861 11.4543 1.45312 9.50298C2.31473 7.5517 3.48042 5.87917 4.95022 4.4854C6.44535 3.06629 8.20657 1.96395 10.2339 1.17837C12.2612 0.392789 14.4659 0 16.8479 0C19.2554 0 21.4727 0.392789 23.5 1.17837C25.5273 1.96395 27.2759 3.06629 28.7457 4.4854C30.2408 5.87917 31.3938 7.5517 32.2048 9.50298C33.041 11.4543 33.4591 13.5829 33.4591 15.889C33.4591 18.2204 33.041 20.3617 32.2048 22.313C31.3938 24.2643 30.2408 25.9495 28.7457 27.3686C27.2759 28.7877 25.5273 29.89 23.5 30.6756C21.4727 31.4612 19.2554 31.854 16.8479 31.854C14.4659 31.854 12.2612 31.4612 10.2339 30.6756C8.20657 29.89 6.44535 28.7877 4.95022 27.3686C3.48042 25.9495 2.31473 24.2643 1.45312 22.313C0.616861 20.3617 0.19873 18.2204 0.19873 15.889ZM8.10521 15.889C8.10521 17.2827 8.30794 18.5625 8.7134 19.7282C9.1442 20.8685 9.73972 21.8568 10.5 22.6931C11.2602 23.5294 12.1725 24.1882 13.2368 24.6697C14.3265 25.1259 15.5302 25.3539 16.8479 25.3539C18.1657 25.3539 19.3567 25.1259 20.4211 24.6697C21.5107 24.1882 22.4357 23.5294 23.1959 22.6931C23.9562 21.8568 24.539 20.8685 24.9445 19.7282C25.3753 18.5625 25.5907 17.2827 25.5907 15.889C25.5907 14.5459 25.3753 13.3042 24.9445 12.1638C24.539 11.0234 23.9562 10.0351 23.1959 9.19888C22.4357 8.36262 21.5107 7.71642 20.4211 7.26027C19.3567 6.77879 18.1657 6.53805 16.8479 6.53805C15.5302 6.53805 14.3265 6.77879 13.2368 7.26027C12.1725 7.71642 11.2602 8.36262 10.5 9.19888C9.73972 10.0351 9.1442 11.0234 8.7134 12.1638C8.30794 13.3042 8.10521 14.5459 8.10521 15.889Z" fill="#4A86FF"/>
</svg>
