<svg width="27" height="32" viewBox="0 0 27 32" fill="none" xmlns="http://www.w3.org/2000/svg">
<path id="Vector" d="M0 0.79834H16.9913C18.3091 0.79834 19.5381 0.975729 20.6785 1.33051C21.8442 1.68528 22.8452 2.23012 23.6814 2.96502C24.5177 3.67458 25.1765 4.59953 25.658 5.73989C26.1395 6.88024 26.3803 8.22333 26.3803 9.76915C26.3803 11.2896 26.1902 12.5947 25.8101 13.6844C25.43 14.7487 24.8598 15.661 24.0995 16.4212C23.3393 17.1561 22.389 17.777 21.2487 18.2838C20.1336 18.7653 18.8412 19.1708 17.3714 19.5002L7.90648 21.5909V31.0938H0V0.79834ZM18.5118 9.95921C18.5118 9.24965 18.2711 8.64146 17.7896 8.13464C17.3334 7.60247 16.7126 7.33639 15.927 7.33639H7.90648V14.6727L15.1287 13.3423C16.4211 13.1142 17.3081 12.6961 17.7896 12.0879C18.2711 11.4797 18.5118 10.7701 18.5118 9.95921Z" fill="#4A86FF"/>
</svg>
