<svg width="29" height="32" viewBox="0 0 29 32" fill="none" xmlns="http://www.w3.org/2000/svg">
<path id="Vector" d="M0.00561523 0.79834H16.9969C18.3147 0.79834 19.5437 0.975729 20.6841 1.33051C21.8498 1.68528 22.8508 2.23012 23.687 2.96502C24.5233 3.67458 25.1822 4.59953 25.6637 5.73989C26.1451 6.88024 26.3859 8.22333 26.3859 9.76915C26.3859 11.7964 26.0438 13.4436 25.3596 14.7107C24.6753 15.9524 23.6617 16.9534 22.3186 17.7136L28.0964 31.0938H19.8478L15.1344 19.9944L7.91209 21.5909V31.0938H0.00561523V0.79834ZM18.5174 9.95921C18.5174 9.24965 18.2767 8.64146 17.7952 8.13464C17.339 7.60247 16.7182 7.33639 15.9326 7.33639H7.91209V14.6727L15.1344 13.3423C16.4268 13.1142 17.3137 12.6961 17.7952 12.0879C18.2767 11.4797 18.5174 10.7701 18.5174 9.95921Z" fill="#4A86FF"/>
</svg>
