<svg width="40" height="40" viewBox="0 0 40 40" fill="none" xmlns="http://www.w3.org/2000/svg">
<g id="EnvelopeSimple">
<path id="Vector" d="M32.9231 9H7.07692C6.79131 9 6.51739 9.11589 6.31542 9.32218C6.11346 9.52847 6 9.80826 6 10.1V28.8C6 29.3835 6.22692 29.9431 6.63085 30.3556C7.03477 30.7682 7.58261 31 8.15385 31H31.8462C32.4174 31 32.9652 30.7682 33.3692 30.3556C33.7731 29.9431 34 29.3835 34 28.8V10.1C34 9.80826 33.8865 9.52847 33.6846 9.32218C33.4826 9.11589 33.2087 9 32.9231 9ZM31.8462 28.8H8.15385V12.6011L19.2717 23.0112C19.4704 23.1975 19.7303 23.3009 20 23.3009C20.2697 23.3009 20.5296 23.1975 20.7283 23.0112L31.8462 12.6011V28.8Z" fill="#BFC4D8"/>
</g>
</svg>
