<svg width="40" height="40" viewBox="0 0 40 40" fill="none" xmlns="http://www.w3.org/2000/svg">
<g id="MapPin">
<path id="Vector" d="M20 5C16.8185 5.00354 13.7684 6.2464 11.5187 8.45591C9.26905 10.6654 8.00361 13.6611 8 16.7858C8 26.8708 18.9091 34.4873 19.3741 34.8061C19.5575 34.9323 19.776 35 20 35C20.224 35 20.4425 34.9323 20.6259 34.8061C21.0909 34.4873 32 26.8708 32 16.7858C31.9964 13.6611 30.731 10.6654 28.4813 8.45591C26.2316 6.2464 23.1815 5.00354 20 5ZM20 12.5001C20.863 12.5001 21.7067 12.7514 22.4243 13.2224C23.1419 13.6933 23.7012 14.3626 24.0315 15.1457C24.3617 15.9289 24.4482 16.7906 24.2798 17.6219C24.1114 18.4533 23.6958 19.2169 23.0856 19.8163C22.4753 20.4157 21.6978 20.8239 20.8513 20.9892C20.0048 21.1546 19.1275 21.0697 18.3301 20.7454C17.5328 20.421 16.8513 19.8717 16.3718 19.1669C15.8923 18.4621 15.6364 17.6335 15.6364 16.7858C15.6364 15.6492 16.0961 14.5591 16.9144 13.7553C17.7328 12.9516 18.8427 12.5001 20 12.5001Z" fill="#BFC4D8"/>
</g>
</svg>
