<svg width="40" height="40" viewBox="0 0 40 40" fill="none" xmlns="http://www.w3.org/2000/svg">
<g id="Phone">
<path id="Vector" d="M33.9843 26.3957C33.7436 28.225 32.8452 29.9042 31.4569 31.1195C30.0686 32.3349 28.2854 33.0033 26.4403 33C15.7212 33 7.00001 24.2789 7.00001 13.5598C6.9967 11.7147 7.66515 9.93154 8.8805 8.54328C10.0959 7.15503 11.775 6.25664 13.6043 6.01593C14.0669 5.95944 14.5354 6.05408 14.9398 6.28571C15.3441 6.51734 15.6628 6.87354 15.8481 7.30114L18.6993 13.6665V13.6827C18.8412 14.01 18.8998 14.3673 18.8699 14.7228C18.8399 15.0783 18.7224 15.4208 18.5279 15.7198C18.5036 15.7563 18.4779 15.79 18.4509 15.8238L15.6402 19.1556C16.6513 21.2103 18.8006 23.3406 20.8823 24.3545L24.1683 21.5586C24.2005 21.5315 24.2343 21.5063 24.2695 21.483C24.5683 21.2838 24.912 21.1621 25.2696 21.1291C25.6271 21.0961 25.9873 21.1528 26.3175 21.294L26.335 21.3021L32.695 24.152C33.1234 24.3366 33.4804 24.655 33.7128 25.0594C33.9452 25.4639 34.0405 25.9327 33.9843 26.3957Z" fill="#BFC4D8"/>
</g>
</svg>
